<svg data-v-423bf9ae="" xmlns="http://www.w3.org/2000/svg" viewBox="0 0 482 90" class="iconLeft"><!----><!----><!----><g data-v-423bf9ae="" id="2f0d02b8-d773-4d09-b5c4-6c8ee995e3f4" fill="white" transform="matrix(6.191950123131256,0,0,6.191950123131256,104.61300315936575,9.365324450699823)"><path d="M6.34 10.50L2.69 10.50L2.69 10.50Q2.04 10.49 1.65 10.30L1.65 10.30L1.65 10.30Q1.26 10.11 1.06 9.67L1.06 9.67L1.06 9.67Q0.87 9.24 0.87 8.51L0.87 8.51L0.87 2.59L0.87 2.59Q0.87 1.85 1.30 1.38L1.30 1.38L1.30 1.38Q1.74 0.91 2.45 0.91L2.45 0.91L2.45 0.91Q3.29 0.91 3.69 1.22L3.69 1.22L3.69 1.22Q4.09 1.53 4.09 2.46L4.09 2.46L4.09 8.08L6.48 8.08L6.48 8.08Q7.29 8.08 7.62 8.32L7.62 8.32L7.62 8.32Q7.95 8.55 7.95 9.30L7.95 9.30L7.95 9.30Q7.95 10.05 7.57 10.28L7.57 10.28L7.57 10.28Q7.20 10.50 6.34 10.50L6.34 10.50ZM13.68 7.18L13.68 7.18L13.68 7.18Q13.68 6.45 13.50 5.90L13.50 5.90L13.50 5.90Q13.31 5.35 12.96 5.35L12.96 5.35L12.96 5.35Q12.73 5.35 12.54 5.63L12.54 5.63L12.54 5.63Q12.36 5.91 12.28 6.31L12.28 6.31L12.28 6.31Q12.19 6.72 12.19 7.18L12.19 7.18L12.19 7.18Q12.19 7.90 12.39 8.44L12.39 8.44L12.39 8.44Q12.59 8.97 12.95 8.97L12.95 8.97L12.95 8.97Q13.31 8.97 13.50 8.44L13.50 8.44L13.50 8.44Q13.68 7.91 13.68 7.18ZM12.95 10.60L12.95 10.60L12.95 10.60Q11.86 10.60 10.98 10.21L10.98 10.21L10.98 10.21Q10.11 9.81 9.58 9.03L9.58 9.03L9.58 9.03Q9.06 8.25 9.06 7.20L9.06 7.20L9.06 7.20Q9.06 5.60 10.15 4.66L10.15 4.66L10.15 4.66Q11.24 3.72 12.95 3.72L12.95 3.72L12.95 3.72Q14.66 3.72 15.74 4.66L15.74 4.66L15.74 4.66Q16.81 5.60 16.81 7.20L16.81 7.20L16.81 7.20Q16.81 8.78 15.71 9.69L15.71 9.69L15.71 9.69Q14.62 10.60 12.95 10.60ZM22.13 5.26L22.13 5.26L22.13 5.26Q22.13 4.94 21.77 4.94L21.77 4.94L21.77 4.94Q21.50 4.94 21.29 5.24L21.29 5.24L21.29 5.24Q21.08 5.53 20.97 5.97L20.97 5.97L20.97 5.97Q20.86 6.41 20.86 6.89L20.86 6.89L20.86 6.89Q20.86 7.59 21.29 8.02L21.29 8.02L21.29 8.02Q21.71 8.46 22.44 8.46L22.44 8.46L22.44 8.46Q23.16 8.46 23.67 8.29L23.67 8.29L23.67 8.29Q23.88 8.23 24.19 8.08L24.19 8.08L24.19 8.08Q24.49 7.92 24.61 7.92L24.61 7.92L24.61 7.92Q24.81 7.92 24.93 7.99L24.93 7.99L24.93 7.99Q25.06 8.06 25.11 8.16L25.11 8.16L25.11 8.16Q25.16 8.26 25.16 8.37L25.16 8.37L25.16 8.37Q25.16 8.57 25.02 8.85L25.02 8.85L25.02 8.85Q24.89 9.13 24.61 9.44L24.61 9.44L24.61 9.44Q24.33 9.74 23.96 10.00L23.96 10.00L23.96 10.00Q23.59 10.26 23.04 10.43L23.04 10.43L23.04 10.43Q22.50 10.60 21.90 10.60L21.90 10.60L21.90 10.60Q20.16 10.60 19.04 9.67L19.04 9.67L19.04 9.67Q17.92 8.74 17.92 7.11L17.92 7.11L17.92 7.11Q17.92 6.08 18.43 5.30L18.43 5.30L18.43 5.30Q18.94 4.52 19.84 4.12L19.84 4.12L19.84 4.12Q20.73 3.72 21.90 3.72L21.90 3.72L21.90 3.72Q23.00 3.72 23.72 3.98L23.72 3.98L23.72 3.98Q24.44 4.24 24.75 4.68L24.75 4.68L24.75 4.68Q25.06 5.11 25.06 5.71L25.06 5.71L25.06 5.71Q25.06 5.98 24.95 6.26L24.95 6.26L24.95 6.26Q24.85 6.54 24.63 6.82L24.63 6.82L24.63 6.82Q24.42 7.10 24.00 7.27L24.00 7.27L24.00 7.27Q23.58 7.45 23.02 7.45L23.02 7.45L23.02 7.45Q22.76 7.45 22.60 7.42L22.60 7.42L22.60 7.42Q22.44 7.39 22.27 7.30L22.27 7.30L22.27 7.30Q22.09 7.21 22.01 7L22.01 7L22.01 7Q21.92 6.79 21.92 6.47L21.92 6.47L21.92 6.47Q21.92 6.19 22.03 5.79L22.03 5.79L22.03 5.79Q22.13 5.39 22.13 5.26ZM29.96 8.51L29.96 8.51L29.46 8.51L29.46 8.51Q29.46 9.24 29.04 9.87L29.04 9.87L29.04 9.87Q28.62 10.50 27.92 10.50L27.92 10.50L27.92 10.50Q27.13 10.50 26.76 10.06L26.76 10.06L26.76 10.06Q26.39 9.62 26.39 8.50L26.39 8.50L26.39 2.74L26.39 2.74Q26.39 2.14 26.59 1.77L26.59 1.77L26.59 1.77Q26.78 1.40 27.10 1.25L27.10 1.25L27.10 1.25Q27.41 1.09 27.92 1.06L27.92 1.06L27.92 1.06Q28.78 1.06 29.08 1.64L29.08 1.64L29.08 1.64Q29.37 2.23 29.37 3.65L29.37 3.65L29.37 3.65Q29.37 4.76 29.25 5.60L29.25 5.60L29.25 5.60Q29.34 5.91 29.88 5.91L29.88 5.91L29.88 5.91Q30.21 5.91 30.33 5.76L30.33 5.76L30.33 5.76Q30.45 5.61 30.45 5.17L30.45 5.17L30.45 5.17Q30.45 4.51 30.79 4.21L30.79 4.21L30.79 4.21Q31.14 3.92 31.96 3.92L31.96 3.92L31.96 3.92Q32.83 3.92 33.13 4.23L33.13 4.23L33.13 4.23Q33.43 4.55 33.43 5.38L33.43 5.38L33.43 5.38Q33.43 6.24 32.91 6.72L32.91 6.72L32.91 6.72Q32.40 7.20 31.75 7.20L31.75 7.20L31.75 7.20Q32.41 7.20 32.92 7.59L32.92 7.59L32.92 7.59Q33.43 7.99 33.43 8.79L33.43 8.79L33.43 8.79Q33.43 9.86 33.14 10.18L33.14 10.18L33.14 10.18Q32.86 10.50 31.96 10.50L31.96 10.50L31.96 10.50Q31.14 10.50 30.79 10.20L30.79 10.20L30.79 10.20Q30.45 9.90 30.45 9.25L30.45 9.25L30.45 9.25Q30.45 8.93 30.39 8.77L30.39 8.77L30.39 8.77Q30.34 8.61 30.25 8.56L30.25 8.56L30.25 8.56Q30.16 8.51 29.96 8.51ZM40.12 3.61L40.12 3.61L40.12 3.61Q40.12 3.02 39.67 2.81L39.67 2.81L39.67 2.81Q39.21 2.59 38.15 2.59L38.15 2.59L38.15 4.73L38.15 4.73Q38.81 4.73 39.22 4.63L39.22 4.63L39.22 4.63Q39.63 4.54 39.88 4.29L39.88 4.29L39.88 4.29Q40.12 4.05 40.12 3.61ZM40.31 7.35L40.31 7.35L40.31 7.35Q40.31 6.89 40.07 6.64L40.07 6.64L40.07 6.64Q39.83 6.38 39.38 6.28L39.38 6.28L39.38 6.28Q38.93 6.17 38.15 6.17L38.15 6.17L38.15 8.60L38.15 8.60Q39.24 8.60 39.77 8.32L39.77 8.32L39.77 8.32Q40.31 8.05 40.31 7.35ZM42.03 5.52L42.03 5.52L42.03 5.52Q43.33 6.29 43.33 7.57L43.33 7.57L43.33 7.57Q43.33 8.13 43.11 8.64L43.11 8.64L43.11 8.64Q42.90 9.16 42.47 9.58L42.47 9.58L42.47 9.58Q42.04 10.00 41.34 10.24L41.34 10.24L41.34 10.24Q40.64 10.49 39.76 10.49L39.76 10.49L36.51 10.49L36.51 10.49Q35.66 10.49 35.29 10.05L35.29 10.05L35.29 10.05Q34.92 9.62 34.92 8.50L34.92 8.50L34.92 2.58L34.92 2.58Q34.92 2.10 35.08 1.74L35.08 1.74L35.08 1.74Q35.25 1.37 35.62 1.15L35.62 1.15L35.62 1.15Q35.99 0.92 36.51 0.92L36.51 0.92L39.72 0.92L39.72 0.92Q41.12 0.94 42.05 1.69L42.05 1.69L42.05 1.69Q42.98 2.44 42.98 3.61L42.98 3.61L42.98 3.61Q42.98 3.99 42.92 4.28L42.92 4.28L42.92 4.28Q42.85 4.56 42.73 4.79L42.73 4.79L42.73 4.79Q42.60 5.01 42.43 5.18L42.43 5.18L42.43 5.18Q42.27 5.35 42.03 5.52ZM49.32 7.18L49.32 7.18L49.32 7.18Q49.32 6.45 49.14 5.90L49.14 5.90L49.14 5.90Q48.96 5.35 48.61 5.35L48.61 5.35L48.61 5.35Q48.37 5.35 48.19 5.63L48.19 5.63L48.19 5.63Q48.01 5.91 47.92 6.31L47.92 6.31L47.92 6.31Q47.84 6.72 47.84 7.18L47.84 7.18L47.84 7.18Q47.84 7.90 48.03 8.44L48.03 8.44L48.03 8.44Q48.23 8.97 48.59 8.97L48.59 8.97L48.59 8.97Q48.96 8.97 49.14 8.44L49.14 8.44L49.14 8.44Q49.32 7.91 49.32 7.18ZM48.59 10.60L48.59 10.60L48.59 10.60Q47.50 10.60 46.63 10.21L46.63 10.21L46.63 10.21Q45.75 9.81 45.23 9.03L45.23 9.03L45.23 9.03Q44.70 8.25 44.70 7.20L44.70 7.20L44.70 7.20Q44.70 5.60 45.79 4.66L45.79 4.66L45.79 4.66Q46.89 3.72 48.59 3.72L48.59 3.72L48.59 3.72Q50.30 3.72 51.38 4.66L51.38 4.66L51.38 4.66Q52.46 5.60 52.46 7.20L52.46 7.20L52.46 7.20Q52.46 8.78 51.36 9.69L51.36 9.69L51.36 9.69Q50.26 10.60 48.59 10.60ZM57.22 9.11L57.22 9.11L57.22 9.11Q57.19 9.16 57.04 9.31L57.04 9.31L57.04 9.31Q56.88 9.46 56.83 9.52L56.83 9.52L56.83 9.52Q56.78 9.58 56.64 9.72L56.64 9.72L56.64 9.72Q56.49 9.87 56.41 9.93L56.41 9.93L56.41 9.93Q56.34 10.00 56.20 10.11L56.20 10.11L56.20 10.11Q56.06 10.22 55.95 10.27L55.95 10.27L55.95 10.27Q55.85 10.32 55.72 10.38L55.72 10.38L55.72 10.38Q55.59 10.44 55.47 10.47L55.47 10.47L55.47 10.47Q55.34 10.50 55.22 10.50L55.22 10.50L55.22 10.50Q54.60 10.50 54.04 10.00L54.04 10.00L54.04 10.00Q53.48 9.49 53.48 8.92L53.48 8.92L53.48 8.92Q53.48 8.78 53.60 8.60L53.60 8.60L53.60 8.60Q53.72 8.43 53.95 8.22L53.95 8.22L53.95 8.22Q54.18 8.01 54.35 7.85L54.35 7.85L54.35 7.85Q54.53 7.70 54.80 7.49L54.80 7.49L54.80 7.49Q55.08 7.28 55.13 7.22L55.13 7.22L55.13 7.22Q55.02 7.14 54.81 6.96L54.81 6.96L54.81 6.96Q54.60 6.79 54.46 6.66L54.46 6.66L54.46 6.66Q54.32 6.54 54.14 6.35L54.14 6.35L54.14 6.35Q53.96 6.16 53.85 5.99L53.85 5.99L53.85 5.99Q53.75 5.81 53.66 5.59L53.66 5.59L53.66 5.59Q53.58 5.36 53.58 5.12L53.58 5.12L53.58 5.12Q53.58 4.65 54.04 4.24L54.04 4.24L54.04 4.24Q54.50 3.84 54.99 3.84L54.99 3.84L54.99 3.84Q55.26 3.84 55.51 3.95L55.51 3.95L55.51 3.95Q55.76 4.06 55.99 4.26L55.99 4.26L55.99 4.26Q56.22 4.47 56.41 4.67L56.41 4.67L56.41 4.67Q56.60 4.87 56.83 5.14L56.83 5.14L56.83 5.14Q57.06 5.42 57.22 5.56L57.22 5.56L57.22 5.56Q57.37 5.42 57.69 5.04L57.69 5.04L57.69 5.04Q58.02 4.66 58.23 4.45L58.23 4.45L58.23 4.45Q58.44 4.23 58.77 4.03L58.77 4.03L58.77 4.03Q59.11 3.84 59.43 3.84L59.43 3.84L59.43 3.84Q59.63 3.84 59.84 3.91L59.84 3.91L59.84 3.91Q60.05 3.99 60.22 4.12L60.22 4.12L60.22 4.12Q60.40 4.26 60.54 4.42L60.54 4.42L60.54 4.42Q60.69 4.58 60.77 4.77L60.77 4.77L60.77 4.77Q60.84 4.96 60.84 5.14L60.84 5.14L60.84 5.14Q60.84 5.38 60.76 5.61L60.76 5.61L60.76 5.61Q60.68 5.84 60.44 6.11L60.44 6.11L60.44 6.11Q60.20 6.38 60.09 6.50L60.09 6.50L60.09 6.50Q59.99 6.62 59.65 6.92L59.65 6.92L59.65 6.92Q59.30 7.22 59.30 7.22L59.30 7.22L59.30 7.22Q59.35 7.28 59.63 7.49L59.63 7.49L59.63 7.49Q59.91 7.70 60.08 7.85L60.08 7.85L60.08 7.85Q60.26 8.01 60.48 8.22L60.48 8.22L60.48 8.22Q60.70 8.43 60.82 8.60L60.82 8.60L60.82 8.60Q60.94 8.78 60.94 8.92L60.94 8.92L60.94 8.92Q60.94 9.49 60.38 10.00L60.38 10.00L60.38 10.00Q59.82 10.50 59.21 10.50L59.21 10.50L59.21 10.50Q59.07 10.50 58.92 10.46L58.92 10.46L58.92 10.46Q58.77 10.42 58.65 10.37L58.65 10.37L58.65 10.37Q58.53 10.32 58.38 10.21L58.38 10.21L58.38 10.21Q58.23 10.09 58.13 10.02L58.13 10.02L58.13 10.02Q58.04 9.95 57.88 9.80L57.88 9.80L57.88 9.80Q57.72 9.65 57.66 9.58L57.66 9.58L57.66 9.58Q57.60 9.52 57.43 9.34L57.43 9.34L57.43 9.34Q57.26 9.16 57.22 9.11Z"></path></g><!----><g data-v-423bf9ae="" id="2e3ca2ef-7f24-4e45-b853-88e22293cd77" transform="matrix(2.8125,0,0,2.8125,0,0)" stroke="none" fill="white"><path d="M9.382 8.675h13.943v13.943L32 31.293V0H.707zM22.618 23.325H8.675V9.382L0 .707V32h31.293z"></path></g><!----></svg>